<!-- Generated by IcoMoon.io -->
<svg version="1.1" xmlns="http://www.w3.org/2000/svg" width="11" height="32" viewBox="0 0 11 32">
<title>I</title>
<path d="M9.875 25.016v0.578h-9.078v-0.578h0.75q1.328 0 1.906-0.766 0.375-0.484 0.375-2.406v-13.688q0-0.75-0.031-1.219t-0.117-0.773-0.25-0.477-0.445-0.328q-0.688-0.375-1.438-0.375h-0.75v-0.578h9.078v0.578h-0.766q-1.313 0-1.891 0.766-0.391 0.484-0.391 2.406v13.688q0 0.75 0.031 1.219t0.117 0.766 0.258 0.477 0.453 0.336q0.672 0.375 1.422 0.375h0.766z"></path>
</svg>
